<?xml version="1.0" encoding="UTF-8"?>
<svg id="Camada_1" data-name="Camada 1" xmlns="http://www.w3.org/2000/svg" xmlns:xlink="http://www.w3.org/1999/xlink" viewBox="0 0 988.19 216.83">
  <defs>
    <style>
      .cls-1 {
        fill: url(#Gradiente_sem_nome_28);
      }
    </style>
    <linearGradient id="Gradiente_sem_nome_28" data-name="Gradiente sem nome 28" x1="0" y1="108.42" x2="988.19" y2="108.42" gradientUnits="userSpaceOnUse">
      <stop offset="0" stop-color="#24b2ff"/>
      <stop offset="1" stop-color="#9c3dff"/>
    </linearGradient>
  </defs>
  <path class="cls-1" d="M381.48,60.3c-12.17-6.57-26.09-9.86-41.74-9.86s-30.25,3.38-42.61,10.15c-12.37,6.77-21.99,16.43-28.84,28.99-6.86,12.57-10.29,27.25-10.29,44.06s3.48,31.5,10.44,44.06c6.96,12.57,16.62,22.23,28.99,28.99,12.36,6.77,26.47,10.15,42.32,10.15,13.14,0,25.02-2.42,35.65-7.25,10.63-4.83,19.47-11.5,26.53-20,7.05-8.5,11.93-18.07,14.64-28.7h-52.76c-4.83,10.44-13.43,15.65-25.8,15.65-8.31,0-15.32-2.66-21.02-7.97-5.7-5.31-8.94-12.99-9.71-23.04h112.18c.58-5.02.87-9.86.87-14.49,0-16.23-3.43-30.44-10.29-42.61-6.86-12.18-16.38-21.55-28.55-28.12ZM307.56,117.98c1.35-8.89,4.88-15.75,10.58-20.58,5.7-4.83,12.7-7.25,21.02-7.25s15.94,2.51,21.74,7.54c5.8,5.03,8.7,11.79,8.7,20.29h-62.03ZM179.72,167.84l-27.54-115.08h-52.47l-27.25,115.66-22.9-115.66H0l44.06,161.75h54.5l26.38-104.94,25.51,104.94h54.79l43.77-161.75h-46.67l-22.61,115.08ZM519.17,168.13l-35.08-115.37h-53.05l57.4,161.75h61.16l57.4-161.75h-52.76l-35.08,115.37ZM812.52,214.51h49.57V0h-49.57v214.51ZM744.98,60.59c-12.76-6.76-27.06-10.15-42.9-10.15s-30.15,3.38-42.9,10.15c-12.76,6.77-22.81,16.48-30.15,29.13-7.35,12.66-11.02,27.3-11.02,43.92s3.62,31.5,10.87,44.06c7.25,12.57,17.2,22.23,29.86,28.99,12.66,6.77,26.91,10.15,42.76,10.15s30.19-3.38,43.05-10.15c12.85-6.76,22.99-16.47,30.44-29.13,7.44-12.66,11.16-27.29,11.16-43.92s-3.67-31.26-11.01-43.92c-7.35-12.65-17.39-22.37-30.15-29.13ZM737.46,123.58c-14.09,23.41-29,46.38-43.53,69.53l-1.54.94h-1.89c-1.75-.88-2.77-2.04-2.57-4.1l10.6-42.16h-29.15c-.1,0-1.51-.8-1.66-.94-1.01-.93-1.43-3.02-.68-4.23l43.3-68.59c2.57-1.97,6.08-.22,5.89,3.05l-10.62,42.38h29.15c.1,0,1.51.8,1.66.94.7.65,1.24,2.23,1.04,3.18ZM970.5,172.48c-5.41,0-9.27-1.06-11.59-3.19-2.32-2.13-3.48-5.6-3.48-10.44v-64.93h32.47v-41.16h-32.47V13.33h-49.57v39.42h-19.71v41.16h19.71v64.35c0,19.91,5.02,34.25,15.07,43.05,10.05,8.8,24.06,13.19,42.03,13.19h25.22v-42.03h-17.68Z"/>
</svg>