<?xml version="1.0" encoding="UTF-8"?>
<svg id="Camada_1" data-name="Camada 1" xmlns="http://www.w3.org/2000/svg" xmlns:xlink="http://www.w3.org/1999/xlink" viewBox="0 0 1187.25 260.51">
  <defs>
    <style>
      .cls-1 {
        fill: url(#Gradiente_sem_nome_28);
      }

      .cls-2 {
        fill: #fff;
      }
    </style>
    <linearGradient id="Gradiente_sem_nome_28" data-name="Gradiente sem nome 28" x1="0" y1="130.25" x2="1187.25" y2="130.25" gradientUnits="userSpaceOnUse">
      <stop offset="0" stop-color="#24b2ff"/>
      <stop offset="1" stop-color="#9c3dff"/>
    </linearGradient>
  </defs>
  <path class="cls-1" d="M215.93,201.65l-33.09-138.26h-63.04l-32.74,138.96L59.55,63.39H0l52.94,194.33h65.48l31.69-126.07,30.65,126.07h65.82l52.59-194.33h-56.07l-27.16,138.26ZM458.32,72.44c-14.63-7.89-31.35-11.84-50.15-11.84s-36.34,4.07-51.2,12.19c-14.86,8.13-26.42,19.74-34.65,34.83-8.25,15.1-12.36,32.74-12.36,52.94s4.18,37.85,12.54,52.94c8.36,15.1,19.97,26.7,34.83,34.83,14.86,8.13,31.81,12.19,50.85,12.19,15.79,0,30.07-2.9,42.84-8.71,12.77-5.8,23.39-13.81,31.87-24.03,8.47-10.21,14.33-21.71,17.59-34.48h-63.38c-5.81,12.54-16.14,18.81-31,18.81-9.99,0-18.4-3.19-25.25-9.58-6.85-6.38-10.74-15.61-11.67-27.69h134.78c.7-6.04,1.04-11.84,1.04-17.41,0-19.5-4.12-36.57-12.36-51.2-8.25-14.63-19.68-25.89-34.31-33.78ZM369.51,141.75c1.62-10.68,5.86-18.92,12.71-24.73,6.85-5.8,15.26-8.71,25.25-8.71s19.16,3.02,26.12,9.05c6.96,6.04,10.45,14.16,10.45,24.38h-74.53ZM623.75,202l-42.14-138.61h-63.73l68.96,194.33h73.48l68.96-194.33h-63.38l-42.14,138.61ZM895.05,72.79c-15.33-8.12-32.51-12.19-51.55-12.19s-36.22,4.07-51.54,12.19c-15.33,8.13-27.4,19.8-36.22,35-8.83,15.21-13.24,32.8-13.24,52.76s4.35,37.85,13.06,52.94c8.71,15.1,20.66,26.7,35.87,34.83,15.21,8.13,32.33,12.19,51.37,12.19s36.28-4.06,51.72-12.19c15.44-8.13,27.63-19.79,36.57-35,8.94-15.21,13.41-32.79,13.41-52.76s-4.41-37.55-13.23-52.76c-8.83-15.2-20.9-26.87-36.22-35ZM976.2,257.72h59.55V0h-59.55v257.72ZM1166,207.22c-6.5,0-11.14-1.27-13.93-3.83-2.79-2.55-4.18-6.73-4.18-12.54v-78.01h39.01v-49.45h-39.01V16.02h-59.55v47.37h-23.68v49.45h23.68v77.32c0,23.91,6.04,41.15,18.11,51.72,12.07,10.57,28.91,15.85,50.5,15.85h30.3v-50.5h-21.25Z"/>
  <path class="cls-2" d="M884.76,144.66c-.17-.16-1.88-1.13-1.99-1.13h-35.02l12.76-50.91c.23-3.93-3.99-6.03-7.08-3.67l-52.02,82.4c-.91,1.45-.4,3.96.81,5.08.17.16,1.88,1.13,1.99,1.13h35.02l-12.73,50.65c-.24,2.48.99,3.87,3.09,4.93h2.27l1.85-1.13c17.46-27.82,35.38-55.42,52.3-83.54.24-1.14-.41-3.04-1.25-3.82Z"/>
</svg>